<?xml version="1.0" encoding="utf-8"?>
<!-- Generator: Adobe Illustrator 16.0.0, SVG Export Plug-In . SVG Version: 6.00 Build 0)  -->
<!DOCTYPE svg PUBLIC "-//W3C//DTD SVG 1.1//EN" "http://www.w3.org/Graphics/SVG/1.1/DTD/svg11.dtd">
<svg version="1.1" id="图层_1" xmlns="http://www.w3.org/2000/svg" xmlns:xlink="http://www.w3.org/1999/xlink" x="0px" y="0px"
	 width="200px" height="200px" viewBox="0 0 200 200" enable-background="new 0 0 200 200" xml:space="preserve">
<path d="M175.955,36.109c1.195,0.001,2.166,0.968,2.17,2.164v86.807c-0.001,1.198-0.973,2.169-2.17,2.17H24.045
	c-1.198-0.001-2.169-0.972-2.17-2.17V38.273c0.004-1.196,0.974-2.163,2.17-2.164H175.955 M175.955,16.578H24.045
	C12.063,16.575,2.347,26.286,2.344,38.268c0,0.002,0,0.004,0,0.006v86.807c-0.003,11.982,9.708,21.697,21.689,21.701
	c0.004,0,0.008,0,0.012,0h151.91c11.982,0.004,21.697-9.707,21.701-21.689c0-0.004,0-0.008,0-0.012V38.273
	c0-11.982-9.713-21.695-21.695-21.695C175.959,16.578,175.957,16.578,175.955,16.578z M32.91,168.428h43.023
	c-2.981-0.098-5.318-2.593-5.221-5.574c0.097-2.953,2.548-5.28,5.502-5.223h47.57c2.982-0.058,5.446,2.313,5.504,5.295
	c0.058,2.953-2.27,5.405-5.223,5.502h43.035c1.107,0,2.777,1.26,3.766,2.875l4.969,12.072H24.176l4.98-12.076
	c0.977-1.617,2.648-2.875,3.754-2.875V168.428z M117.586,69.756c-5.778,0-10.463,4.685-10.463,10.463s4.685,10.463,10.463,10.463
	s10.463-4.685,10.463-10.463C128.043,74.443,123.361,69.762,117.586,69.756z M163.693,88.938h-19.615
	c-3.672,11.133-14.158,19.182-26.5,19.182s-22.822-8.054-26.492-19.182H36.307V71.498h54.779c3.67-11.125,14.158-19.182,26.5-19.182
	s22.828,8.057,26.492,19.182h19.609L163.693,88.938z"/>
</svg>
