<?xml version="1.0" standalone="no"?><!DOCTYPE svg PUBLIC "-//W3C//DTD SVG 1.1//EN" "http://www.w3.org/Graphics/SVG/1.1/DTD/svg11.dtd"><svg t="1661766924650" class="icon" viewBox="0 0 1024 1024" version="1.1" xmlns="http://www.w3.org/2000/svg" p-id="18276" xmlns:xlink="http://www.w3.org/1999/xlink" width="200" height="200"><path d="M512 112a400 400 0 0 1 282.84 682.84 400 400 0 0 1-565.68-565.68A397.38 397.38 0 0 1 512 112m0-100C235.86 12 12 235.86 12 512s223.86 500 500 500 500-223.86 500-500S788.14 12 512 12z m-98 405.9l-91.15-15.35Q340.74 231.3 517.4 231.3q85 0 134.37 41.2t49.33 111.07q0 34.74-16.91 69.27t-79.4 78.55q-42.79 30.29-51.91 47.25t-9.16 45.23l0.47 21.81h-88.8l0.47-17q0-59.37 10.77-82.8T520 491q42.14-31.1 58.06-53.11T594 381.95q0-38.77-22.26-58.56T511 303.59q-89.47 0-97 114.31z m33.4 275.44h104.77v99.36H447.4z" p-id="18277"></path></svg>