<?xml version="1.0" standalone="no"?><!DOCTYPE svg PUBLIC "-//W3C//DTD SVG 1.1//EN" "http://www.w3.org/Graphics/SVG/1.1/DTD/svg11.dtd"><svg t="1661138395090" class="icon" viewBox="0 0 1024 1024" version="1.1" xmlns="http://www.w3.org/2000/svg" p-id="17518" xmlns:xlink="http://www.w3.org/1999/xlink" width="200" height="200"><defs><style type="text/css">@font-face { font-family: feedback-iconfont; src: url("//at.alicdn.com/t/font_1031158_u69w8yhxdu.woff2?t=1630033759944") format("woff2"), url("//at.alicdn.com/t/font_1031158_u69w8yhxdu.woff?t=1630033759944") format("woff"), url("//at.alicdn.com/t/font_1031158_u69w8yhxdu.ttf?t=1630033759944") format("truetype"); }
</style></defs><path d="M984.07 464.53L579.44 59.93a95.38 95.38 0 0 0-134.88 0L39.93 464.52a95.35 95.35 0 0 0 0 134.85h145.86V932a60 60 0 0 0 60 60h532.42a60 60 0 0 0 60-60V599.38h145.86a95.34 95.34 0 0 0 0-134.85z m-145.86 34.85h-100V892H572V712H452v180H285.79V499.38H146.5L512 133.92l365.49 365.46z" p-id="17519"></path></svg>