<?xml version="1.0" standalone="no"?><!DOCTYPE svg PUBLIC "-//W3C//DTD SVG 1.1//EN" "http://www.w3.org/Graphics/SVG/1.1/DTD/svg11.dtd"><svg t="1661132936712" class="icon" viewBox="0 0 1024 1024" version="1.1" xmlns="http://www.w3.org/2000/svg" p-id="17518" xmlns:xlink="http://www.w3.org/1999/xlink" width="200" height="200"><defs><style type="text/css">@font-face { font-family: feedback-iconfont; src: url("//at.alicdn.com/t/font_1031158_u69w8yhxdu.woff2?t=1630033759944") format("woff2"), url("//at.alicdn.com/t/font_1031158_u69w8yhxdu.woff?t=1630033759944") format("woff"), url("//at.alicdn.com/t/font_1031158_u69w8yhxdu.ttf?t=1630033759944") format("truetype"); }
</style></defs><path d="M481.33 1012v-63.85c-105.24-7.24-203.19-51.68-278.5-127C120.25 738.58 74.77 628.79 74.77 512c0-133.23 59.64-257.55 163.63-341.06l52.65 65.56A351.75 351.75 0 0 0 158.86 512c0 184.39 142.06 336.2 322.48 351.8v-61.43l181.51 104.81z m339.84-809.17c-75.31-75.31-173.26-119.74-278.5-127V12L361.15 116.82l181.52 104.81V160.2C723.09 175.8 865.14 327.61 865.14 512c0 108.34-48.71 209.18-133.65 276.67l52.31 65.83C888.93 771 949.23 646.13 949.23 512c0-116.79-45.48-226.58-128.06-309.17z" p-id="17519"></path></svg>