<?xml version="1.0" standalone="no"?><!DOCTYPE svg PUBLIC "-//W3C//DTD SVG 1.1//EN" "http://www.w3.org/Graphics/SVG/1.1/DTD/svg11.dtd"><svg t="1661305196090" class="icon" viewBox="0 0 1024 1024" version="1.1" xmlns="http://www.w3.org/2000/svg" p-id="17652" xmlns:xlink="http://www.w3.org/1999/xlink" width="200" height="200"><defs><style type="text/css">@font-face { font-family: feedback-iconfont; src: url("//at.alicdn.com/t/font_1031158_u69w8yhxdu.woff2?t=1630033759944") format("woff2"), url("//at.alicdn.com/t/font_1031158_u69w8yhxdu.woff?t=1630033759944") format("woff"), url("//at.alicdn.com/t/font_1031158_u69w8yhxdu.ttf?t=1630033759944") format("truetype"); }
</style></defs><path d="M360.12 151.14c30.88 26.8 89.51 68.65 154.51 68.65 64.11 0 122.35-40.93 153.13-67.22l63.15 34.83c-3.94 15.3-7.15 33.54-7.15 52.47 0 110.75 79.31 203.4 184.34 224.56 2.07 15.5 3.89 33.48 3.89 48 0 14.29-1.79 32.17-3.89 48-105 21.15-184.34 113.77-184.34 224.5 0 18.92 3.2 37.14 7.14 52.38l-63.82 35c-31.46-28.46-91-72.54-157.71-72.54-66.26 0-125.17 43-156.47 71L293 837.52c4.25-16.5 7.2-34.83 7.2-52.64 0-110.72-79.32-203.34-184.36-224.49-2.09-15.79-3.86-33.67-3.86-48s1.77-32.22 3.86-48c105-21.16 184.38-113.81 184.38-224.55 0-18.85-3.18-37-7.1-52.21l67-36.52m4.48-107.86a60.59 60.59 0 0 0-23.74 4.64l-1.34 0.58-129.46 70.59-1.28 0.88c-22.4 15.48-30.95 45.81-19.9 70.53 0.12 0.25 11.35 26 11.35 49.41C200.24 311 141.89 369 70.16 369H65c-20.51 0-37.22 18.11-42.58 46.12C22 417.33 12 470.5 12 512.43s10 95 10.44 97.29c5.37 28 22.09 46.14 42.6 46.14h5.13c71.72 0 130.06 57.86 130.06 129 0 23.44-11.23 49.19-11.35 49.38-11 24.71-2.56 55.11 19.77 70.61l1.22 0.86 122.68 68.12 1.28 0.49a58.61 58.61 0 0 0 24 4.89c18 0 35.59-7.33 47-19.65 14.34-15.5 64.39-59.82 104.49-59.82 40.34 0 89.66 44.07 105.23 61 11.41 12.46 29.12 20 47.3 20a59.87 59.87 0 0 0 23.62-4.7l1.34-0.55L814 905.74l1.22-0.86c22.4-15.5 30.95-45.89 19.9-70.55-0.12-0.25-11.35-26-11.35-49.44 0-71.17 58.35-129 130-129h5c20.59 0 37.44-18.05 42.77-46.15 0.43-2.26 10.5-55.42 10.5-97.29s-10.07-95.09-10.5-97.35C996.19 387 979.4 369 958.93 369h-5.16c-71.66 0-130-57.92-130-129.09 0-23.44 11.23-49.16 11.29-49.35 11.11-24.75 2.56-55.12-19.78-70.62l-1.22-0.85L689 50.08l-1.28-0.54a60.66 60.66 0 0 0-24.17-4.82c-17.82 0-35.28 7-46.69 18.83-15.32 15.66-63.42 56.24-102.23 56.24-39.25 0-87.65-41.41-103-57.34-11.47-12-29.11-19.2-47.06-19.2zM512 416.69A95.31 95.31 0 1 1 416.69 512 95.42 95.42 0 0 1 512 416.69m0-100c-107.87 0-195.31 87.44-195.31 195.31S404.13 707.31 512 707.31 707.31 619.87 707.31 512 619.87 316.69 512 316.69z" p-id="17653"></path></svg>