<?xml version="1.0" standalone="no"?><!DOCTYPE svg PUBLIC "-//W3C//DTD SVG 1.1//EN" "http://www.w3.org/Graphics/SVG/1.1/DTD/svg11.dtd"><svg t="1662016504372" class="icon" viewBox="0 0 1024 1024" version="1.1" xmlns="http://www.w3.org/2000/svg" p-id="18059" xmlns:xlink="http://www.w3.org/1999/xlink" width="200" height="200"><path d="M512 116.46l317.29 95.79v240.67c0 38.06-8 78.29-23.73 119.56-16.28 42.63-40.45 85.52-71.85 127.32-32.25 43-71.31 83.83-116.11 121.43A866.43 866.43 0 0 1 512 896.95a866.43 866.43 0 0 1-105.6-75.72c-44.8-37.6-83.86-78.45-116.11-121.43-31.4-41.85-55.57-84.68-71.84-127.32-15.75-41.27-23.74-81.48-23.74-119.56V212.24L512 116.46M512 12L94.71 138v314.92C94.71 657.7 263.86 880.16 512 1012c248.14-131.84 417.29-354.3 417.29-559.08V138L512 12z" p-id="18060"></path></svg>