<?xml version="1.0" standalone="no"?><!DOCTYPE svg PUBLIC "-//W3C//DTD SVG 1.1//EN" "http://www.w3.org/Graphics/SVG/1.1/DTD/svg11.dtd"><svg t="1662016362478" class="icon" viewBox="0 0 1024 1024" version="1.1" xmlns="http://www.w3.org/2000/svg" p-id="17925" xmlns:xlink="http://www.w3.org/1999/xlink" width="200" height="200"><path d="M512 112c92.94 0 168.55 75.61 168.55 168.55S604.94 449.11 512 449.11 343.45 373.5 343.45 280.55 419.06 112 512 112m0-100c-148.32 0-268.55 120.24-268.55 268.55S363.68 549.11 512 549.11s268.55-120.24 268.55-268.56S660.32 12 512 12z m0 653.64h0.13c103.08 0 188.28 17.71 253.24 52.54 26.88 14.41 50.1 31.78 69 51.62a220 220 0 0 1 39.84 57.68c3.82 10.18 7.62 27.51 7.91 45 0.3 18-3.16 29.86-6.49 34.9a4.93 4.93 0 0 1-1.1 1.27c-0.89 0.54-4.19 1.59-10.3 1.7-98.05 1.65-233 1.65-352.07 1.65h-0.32c-119.06 0-254 0-352.07-1.69-6.12-0.11-9.42-1.15-10.3-1.7a4.9 4.9 0 0 1-1.1-1.27c-3.34-5-6.8-16.85-6.49-34.9 0.29-17.45 4.1-34.8 7.92-45a220 220 0 0 1 39.84-57.67c18.91-19.85 42.13-37.21 69-51.62 65-34.83 150.17-52.5 253.24-52.54h0.12m0.17-100h-0.32c-119.73 0-220.81 21.71-300.46 64.4-36.23 19.43-67.91 43.23-94.15 70.76a319.49 319.49 0 0 0-59.08 86.55l-0.52 1.2c-16.43 40.67-28 120.57 7.35 174 14.1 21.29 41.69 46.86 93.06 47.74 98.82 1.71 234.25 1.71 353.8 1.71h0.32c119.55 0 255 0 353.8-1.71 51.37-0.89 79-26.45 93.06-47.74 35.37-53.42 23.78-133.32 7.35-174l-0.52-1.2a319.49 319.49 0 0 0-59.08-86.55c-26.24-27.53-57.91-51.34-94.15-70.76-79.64-42.7-180.73-64.36-300.46-64.4z" p-id="17926"></path></svg>