<?xml version="1.0" standalone="no"?><!DOCTYPE svg PUBLIC "-//W3C//DTD SVG 1.1//EN" "http://www.w3.org/Graphics/SVG/1.1/DTD/svg11.dtd"><svg t="1661138496127" class="icon" viewBox="0 0 1024 1024" version="1.1" xmlns="http://www.w3.org/2000/svg" p-id="17786" xmlns:xlink="http://www.w3.org/1999/xlink" width="200" height="200"><defs><style type="text/css">@font-face { font-family: feedback-iconfont; src: url("//at.alicdn.com/t/font_1031158_u69w8yhxdu.woff2?t=1630033759944") format("woff2"), url("//at.alicdn.com/t/font_1031158_u69w8yhxdu.woff?t=1630033759944") format("woff"), url("//at.alicdn.com/t/font_1031158_u69w8yhxdu.ttf?t=1630033759944") format("truetype"); }
</style></defs><path d="M530.61 579.61c77.31-51.43 128.27-139.33 128.27-239.15 0-158.53-128.51-287-287-287s-287 128.51-287 287c0 99.82 51 187.72 128.27 239.15C94.06 650.77 12 799.28 12 970.58h98.32c0-91.36 28.49-177.25 80.21-241.86 49.35-61.64 113.74-95.58 181.3-95.58s132 33.94 181.3 95.58c51.72 64.61 80.21 150.5 80.21 241.86h98.32c0.02-171.3-82.04-319.81-201.05-390.97zM371.84 151.74c104.06 0 188.72 84.66 188.72 188.72S475.9 529.18 371.84 529.18s-188.72-84.66-188.72-188.72 84.66-188.72 188.72-188.72z m331.61 376h151.23v98.32H703.45z m0-157.32h151.23v98.32H703.45z m151.23 314.64v98.32h-94.43v-98.32zM1012 279.24v595.32a96 96 0 0 1-96 96H794.66v-98.3h119V281.55H703.45v-98.33H916a96 96 0 0 1 96 96.02z" p-id="17787"></path></svg>